<?xml version="1.0" encoding="UTF-8"?>
<svg id="Layer_1" data-name="Layer 1" xmlns="http://www.w3.org/2000/svg" version="1.1" viewBox="0 0 400 400">
  <defs>
    <style>
      .cls-1 {
        fill: #3f1042;
        stroke-width: 0px;
      }
    </style>
  </defs>
  <path class="cls-1" d="M178.38,107.38c4.62-3,9.22-6.11,14.25-8.41,5.34,1.33,7.05,7.69,10.32,11.58,2.93-.88,5.9-1.67,8.9-2.32,13.93,22.23,29.07,43.73,42.92,66,2.71,3.68-2.66,5.79-4.62,8.2,2.43,4.6,7.78,8.74,7.3,14.22-5.25,4.78-11.54,8.56-18.01,11.52-5.7-.99-7.51-7.84-10.86-11.85-2.84.84-7.05,4.35-9.36.83-6.33-8.81-11.95-18.1-18.17-27-2.79.02-5.57.13-8.34-.13-5.05-.59-9.11-5.12-14.4-4.22-15.82,1.51-30.05,13.89-33.43,29.48-3.11,13.3,2.12,28.2,12.71,36.78,5.55,1.98,11.22,3.85,16.91,5.36,16.82.58,33.7-.27,50.53.31,4.04-.75,4.75,3.59,6.33,6.22,14.02-5.03,28.06-9.98,42.08-15.04,1.49,1.49,3,2.98,4.49,4.48-1.96,2.5-4.24,4.82-7.42,5.63-13.28,4.66-26.49,9.49-39.78,14.09-.63,3.13.27,7.32-2.8,9.36-2.46.59-4.94,1.06-7.44,1.4,1.71,3.33,3.43,6.65,5.14,9.98,9.38.18,18.82-.54,28.17.34,9.29,1.4,16.59,8.99,19.18,17.81,9.15.43,18.32-.31,27.45.36,2.64,1.35,4.4,4.13,2.07,6.78-2.41,2.37-6.15,1.56-9.19,1.89-63.58-.18-127.17.05-190.75-.11-5.32,1.24-8.84-6.26-3.33-8.56,9.13-.67,18.3.07,27.45-.38,2.43-8.95,9.78-16.81,19.29-17.88,9.36-.72,18.78-.09,28.17-.25,1.73-3.58,3.42-7.19,5-10.84-8.23-.65-15.49,6.72-23.71,3.24-7.57-2.19-10.1-10.59-16.12-14.9-23.13-19.21-28.31-56.22-11.29-81.03,11.56-18.14,32.61-29.12,53.96-29.57-2.1-3.4-4.39-6.69-5.9-10.41,1.19-2.35,3.24-4.12,4.96-6.04-2.34-3.88-5.55-7.42-6.69-11.88-.81-2.68,2.59-3.54,4.04-5.01ZM184.17,113.51c1.4,2.17,2.79,4.37,4.19,6.56,2.62-1.38,5.19-2.82,7.78-4.26-1.67-2.17-3.24-4.44-5.16-6.4-2.37,1.19-4.58,2.68-6.81,4.1ZM208.02,118.11c-6.96,4.71-13.97,9.36-21.34,13.43.99,1.74,1.92,3.52,3.07,5.19,7.08.38,15.55.36,19.72,7.3,5.46,6.58,2.28,15.03-.52,21.95,4.39,7.8,9.83,14.94,14.61,22.5,7.44-4.12,14.54-8.83,21.53-13.68-12.08-19.09-24.68-37.84-37.08-56.69ZM186.9,149.89c.4,2.8-.04,5.88,1.17,8.5,2.95,3.77,9.02,4.84,12.8,1.64,4.94-3.72,3.2-13.16-3.09-14.34-4.33-1.6-7.89,1.62-10.87,4.21ZM151.29,159c-15.58,9.99-25.15,28.36-24.88,46.82.5,14.61,7.03,28.78,17.76,38.68,1.76-2.66,3.52-5.32,5.3-7.96-11.92-11.99-17.62-30.38-12.1-46.7,5.45-18.03,22.38-31.22,40.95-33.2.05-2.37.11-4.73.16-7.08-9.63,1.04-19.11,4.03-27.2,9.44ZM235.41,191.21c1.71,2.46,3.45,4.93,5.19,7.37,2.12-1.71,4.3-3.36,6.24-5.27-1.22-2.34-2.66-4.53-4.06-6.72-2.46,1.53-4.93,3.07-7.37,4.62ZM157.42,242.69c-6.47,2-6.74,12.62-.38,14.94,4.78,2.88,12.76-.77,12.19-6.78,1.26-6.15-6.63-10.82-11.81-8.16ZM178.41,246.23c-.09,2.71-.16,5.46-.25,8.21,14.31.11,28.63.14,42.94-.04-.02-2.71-.04-5.39-.07-8.09-14.2-.09-28.4.07-42.62-.09ZM189.29,263.27c-1.74,3.49-3.45,6.99-5.12,10.52,10.52.04,21.03-.02,31.55.05-1.76-3.51-3.54-7.01-5.3-10.52-7.05-.2-14.09-.2-21.12-.05ZM136.03,292.05c42.69.31,85.38.34,128.07-.04-2.52-3.13-4.75-7.05-8.79-8.38-3.42-.9-6.99-.9-10.52-.97-26.96.05-53.92.04-80.89.02-6.02.04-12.1-.34-18.06.63-4.71.79-7.51,4.96-9.81,8.74Z"/>
  <path class="cls-1" d="M224.99,107.38c2.41-1.4,4.84-2.79,7.24-4.15,1.46,2.34,2.88,4.69,4.3,7.06l-7.28,4.26c-1.44-2.39-2.86-4.78-4.26-7.17Z"/>
  <path class="cls-1" d="M121.24,107.74c9.38-4.53,21.37,5.32,17.92,15.39-2.17,9.45-15.58,12.49-21.97,5.43-6.65-5.91-3.99-17.58,4.04-20.81ZM122.46,119.44c-.83,2.8,2.66,4.06,3.95,5.99,1.92-2.05,6.63-4.67,3.61-7.84-1.35-3.07-7.96-1.94-7.57,1.85Z"/>
  <path class="cls-1" d="M234.1,121.65c2.43-1.47,4.87-2.93,7.3-4.37,1.42,2.43,2.8,4.85,4.19,7.32-2.46,1.4-4.93,2.79-7.39,4.17l-4.1-7.12Z"/>
  <path class="cls-1" d="M243.43,135.92c2.12-1.69,4.44-3.09,6.7-4.57,1.64,2.3,3.25,4.58,4.89,6.88-2.48,1.64-4.98,3.24-7.5,4.82-1.42-2.35-2.93-4.66-4.1-7.14Z"/>
  <path class="cls-1" d="M251.98,150.29c2.34-1.42,4.69-2.84,7.05-4.26,1.64,2.23,3.25,4.46,4.89,6.72-2.52,1.62-5.03,3.22-7.59,4.8-1.46-2.43-2.91-4.84-4.35-7.26Z"/>
  <path class="cls-1" d="M262.09,164.65c1.94-1.64,4.01-3.07,6.06-4.55,1.67,2.37,3.34,4.78,5.01,7.17-2.61,1.56-5.21,3.11-7.84,4.62-1.15-2.39-2.55-4.69-3.24-7.24Z"/>
  <path class="cls-1" d="M112.37,172.23c2.17-2.77,8.43-1.2,7.12,3.04-3.85,8.09-8.72,15.96-9.53,25.11-1.64,7.93.56,15.84,1.4,23.71-1.55,3.34-6.15,4.04-7.77.36-5.43-17.4-1.74-37.44,8.77-52.22Z"/>
  <path class="cls-1" d="M189.56,200.7c7.37-3.54,17.04.88,18.71,8.99,2.82,10.66-11.38,20.24-20.15,13.18-8.27-5-7.33-18.24,1.44-22.16ZM192.63,209.49c-2.44,2.01-.49,5.21-.11,7.64,2.17-.84,5.5-.2,6.74-2.68,2.48-3.79-3.63-8.45-6.63-4.96Z"/>
</svg>